<?xml version="1.0" encoding="utf-8"?>
<!-- Generator: Adobe Illustrator 24.3.0, SVG Export Plug-In . SVG Version: 6.00 Build 0)  -->
<svg version="1.1" id="Layer_1" xmlns="http://www.w3.org/2000/svg" xmlns:xlink="http://www.w3.org/1999/xlink" x="0px" y="0px"
	 viewBox="0 0 794.8 947.04" style="enable-background:new 0 0 794.8 947.04;" xml:space="preserve">
<g>
	<path d="M787.55,104.54C669.09,36.15,534.18,0,397.4,0S125.71,36.15,7.25,104.54L0,108.73V598.3
		c0,73.59,39.59,142.16,103.32,178.95L397.4,947.04l294.08-169.79C755.21,740.46,794.8,671.89,794.8,598.3V108.73L787.55,104.54z"/>
	<path style="fill:#FFFFFF;" d="M532.15,422.46l5.85,42.91l-8.05,1.1l2.6,19.02l-79.91,10.9c-1.97,22.26-18.62,43.1-44.51,55.32
		l20.46,149.96c1.06,7.8-0.26,15.64-3.82,22.65c-3.47,6.83-8.82,12.43-15.47,16.19c-2.01,1.13-4.12,2.09-6.28,2.85l-2.02,0.7
		l-2.13-0.13c-2.3-0.15-4.59-0.5-6.83-1.06c-7.41-1.84-14.07-5.8-19.24-11.45c-5.31-5.81-8.68-13-9.74-20.8l-20.46-149.96
		c-28.22-4.83-49.84-20.46-57.7-41.38l-79.91,10.9l-2.6-19.02l-8.05,1.1l-5.85-42.91L532.15,422.46z"/>
	<path style="fill:#FFFFFF;" d="M563.27,749.18c-4.4-2.95-8.52-6.69-12.88-10.65c-1.46-1.32-2.98-2.69-4.51-4.05
		c-6.82-6.01-11.72-12.73-14.97-20.56c-2.81-6.76-4.82-13.95-6.95-21.57c-0.36-1.28-0.72-2.57-1.09-3.86
		c-2.83-9.96-5.82-20.01-8.7-29.73c-3.92-13.17-7.97-26.79-11.62-40.2c-3.52-12.93-11.3-22.42-23.11-28.19
		c-6.59-3.23-13.28-5.8-19.75-8.3c-1.97-0.76-3.95-1.53-5.91-2.29c-8.39-3.33-39.76-14.21-41.09-14.67l-21.9-7.6l5.67,21.42
		c-0.78-1.22-1.56-2.47-2.35-3.73c-0.46-0.74-0.92-1.48-1.39-2.24c-4.09-6.51-11.26-9.93-18.73-8.91c-2.57,0.35-5.07,1.2-7.44,2.53
		c-8.32,4.68-10.85,12.53-12.2,16.75c-4.55,14.15-2.28,28.64,6.74,43.07c0.51,0.82,1.04,1.62,1.58,2.39
		c0.02,0.01,0.05,0.03,0.06,0.05c2.7,2.38,4.74,5.04,6.41,7.58c-2.3-2.29-4.48-4.81-6.47-7.63c-4.02-3.53-9.21-5.14-14.28-4.45
		c-5.61,0.76-10.47,4.2-13.33,9.41c-6.61,12.05-5.31,26.02,3.39,36.45c1.74,2.09,3.48,4.29,4.93,6.59
		c-1.84,1.42-3.36,3.32-4.41,5.57c-7.77,16.73-0.6,27.32,4.95,32.5c-0.5,1.21-0.85,2.56-1.01,4.04c-0.01,0.17-0.11,0.63-0.17,0.96
		c-0.34,1.65-0.86,4.14-0.63,7.15c0.64,8.41,4.72,15.83,12.13,22.05c12.54,10.52,27.37,14.32,39.88,17.04l0.64,1.14
		c2.7,4.79,5.66,9.57,9.06,14.62c10.11,14.99,23.06,23.73,38.48,26c5.46,0.8,9.36,2.03,13.04,4.1c2.41,1.36,4.84,2.59,7.2,3.64
		c6.14,2.75,11.54,6.86,15.65,11.9l0.1,0.12c2.5,3.07,11.27,13.56,13.78,16.55c11.67-11.69,34.45-13.95,45.95-25.88
		c15.61-16.21,53.97-18.67,67.22-36.94C604.66,780.82,563.95,749.63,563.27,749.18z M414.45,676.09c-0.12-0.21-0.23-0.41-0.36-0.6
		c0.14,0.12,0.28,0.24,0.43,0.36C414.49,675.93,414.47,676.02,414.45,676.09z"/>
	<path style="fill:#FFFFFF;" d="M369.13,636.42c-2.3-2.28-4.49-4.81-6.47-7.63c0.02,0.02,0.04,0.03,0.06,0.05
		C365.42,631.23,367.46,633.89,369.13,636.42z"/>
	<path style="fill:#FFFFFF;" d="M369.13,636.42c-2.3-2.28-4.49-4.81-6.47-7.63c0.02,0.02,0.04,0.03,0.06,0.05
		C365.42,631.23,367.46,633.89,369.13,636.42z"/>
	<path d="M519.2,827c18.44-18.08,60.03-14.53,68.96-38.6c0.33-0.88-44.34-39.29-50.45-44.67c-7.94-7-14.14-15.29-18.2-25.09
		c-3.6-8.68-5.96-17.76-8.52-26.79c-6.64-23.39-13.96-46.59-20.36-70.05c-2.53-9.27-7.92-16.09-16.63-20.35
		c-8.06-3.94-16.48-6.92-24.79-10.21c-8.24-3.27-40.58-14.48-40.58-14.48c1.01,3.83,2.15,7.62,3.03,11.48
		c0.33,1.44,1.07,2.2,2.38,2.83c14.41,6.97,29.44,12.41,44.26,18.37c2.94,1.18,5.83,2.49,8.74,3.74c-0.07,0.3-0.05,0.23-0.11,0.53
		c-9-0.2-17.78,1.12-26.77,3.5c5.05,4.14,9.45,8.43,13.95,12.61c8.72,8.09,17.42,16.2,24.91,25.48c2.53,3.13,4.9,6.43,5.9,10.46
		c0.25,0.99,0.29,1.95-0.65,2.57c-0.87,0.56-1.69,0.13-2.45-0.38c-2.25-1.52-4.24-3.38-6.36-5.07
		c-6.84-5.41-13.86-10.62-20.66-16.08c-14.29-11.47-27.55-24.21-42.93-34.3c-3.05-2.01-5.55-4.69-8.32-7.03
		c-0.78-0.65-1.46-1.16-2.48-0.31c-2.14,1.81-4.76,2.84-7.16,4.23c-0.82,0.47-1.7,0.68-2.7,0.39c-6.05-1.78-10.14-5.96-13.42-11.04
		c-1.71-2.65-2.33-5.71-2.19-8.85c0.07-1.55,0.15-3.29,2.38-3.76c0.11,0.88,0.2,1.66,0.31,2.44c0.63,4.39,2.21,8.34,5.39,11.55
		c2.73,2.75,6.83,3.31,9.36,1.25c2.68-2.16,2.72-2.19,0.59-4.87c-4.26-5.36-7.77-11.21-11.4-16.99c-2.24-3.58-6.12-4.17-9.66-2.18
		c-3.93,2.21-5.29,5.99-6.5,9.76c-3.79,11.8-0.81,22.72,5.46,32.76c5.28,8.44,13.29,14.17,21.79,19.12
		c4.46,2.6,8.76,5.29,11.97,9.48c2.04,2.68,4.26,5.25,6.52,7.75c6.95,7.75,15.15,14.05,23.61,20.02c1.62,1.14,3.06,2.42,4.55,4.18
		c-3.23-0.03-6.12-0.22-8.98-0.81c-1.21-0.25-2.47-0.33-3.71-0.43c-0.7-0.06-1.15-0.07-1,1.05c1.46,10.24,1.94,20.58,3.57,30.81
		c1.95,12.27,5.79,23.86,13.01,34.02c7.14,10.05,16.55,17.78,26.86,24.47c2.65,1.72,5.29,3.46,7.94,5.19
		c-13.36-2.62-26.16-6.37-37.17-14.77c0.41,2.78,1.04,5.33,2,7.78c2.8,7.14,7.05,13.22,12.25,18.61c-2.19-0.89-4.41-1.56-6.67-1.92
		c-2.21-0.35-4.4-0.45-6.62-1.03c-6.44-1.68-11.65-6.26-15.86-12.17c-0.86-1.2-1.72-2.26-2.62-3.17c-2.25,2.78-5.41,4.59-9.2,5.11
		c-0.29,0.04-0.59,0.07-0.89,0.09c0.37,0.56,0.75,1.13,1.12,1.69c8.02,11.89,18.06,18.93,30.05,20.7c5.83,0.86,11.55,2.32,17.3,5.56
		c2.07,1.16,4.13,2.21,6.18,3.13c7.83,3.5,14.78,8.72,20.19,15.37c0.03,0.04,0.07,0.08,0.1,0.13c4.67,5.76,9.5,11.39,14.25,17.08
		C507.75,833.55,513.47,830.27,519.2,827z"/>
	<path d="M356.54,675.26c3.08,6.9,8.5,11.16,15.41,13.45c4.84,1.6,4.55,1.6,5.77-3.04c0.34-1.31,0.56-2.67,1.88-3.52
		c4.28-2.75,11.97-2.33,15.83,0.92c0.42,0.35,0.83,0.66,0.46,1.26c-0.28,0.45-0.65,0.88-1.24,0.71c-0.62-0.18-1.21-0.51-1.81-0.77
		c-3.13-1.32-6.23-2.13-9.45-0.14c-2.08,1.29-2.78,3.19-2.65,5.41c0.12,2.12,1.47,3.55,3.4,4.17c4.6,1.5,9.26,2.8,13.86,4.27
		c1.9,0.61,3.12-0.07,4.03-1.65c1.43-2.49,2.55-5.11,2.91-8.52c0.28-2.28-0.26-4.39-1.95-6.72c-3.55-4.9-8.21-8.55-13.38-11.57
		c-5.4-3.16-11.3-5.22-17.16-7.32c-2.36-0.84-4-2.23-5.17-4.37c-1.81-3.3-3.59-6.61-5.53-9.84c-2.11-3.5-4.09-7.15-7.21-9.91
		c-2.97-2.62-6.79-1.86-8.68,1.59c-4.1,7.47-3.37,16.12,2.04,22.61C351.26,666.31,354.4,670.47,356.54,675.26z"/>
	<path d="M386.21,726.79c2.83,0.84,3.48,0.68,4.49-2.17c0.68-1.94,1.24-3.91,2.36-5.66c2.79-4.35,7.7-5.2,11.75-2
		c0.41,0.32,1.29,0.64,0.77,1.29c-0.4,0.5-1.18,0.93-1.97,0.57c-0.4-0.18-0.73-0.49-1.11-0.7c-1.77-1.01-3.19-0.6-4.39,1.02
		c-2.75,3.7-0.78,9.9,3.62,11.22c1.54,0.47,3.1,0.88,4.67,1.26c5.45,1.33,8.88-1.15,9.4-6.76c0.38-4.04-1.75-8.55-5.4-11.2
		c-3.24-2.36-6.96-3.78-10.71-5.04c-8.14-2.73-16.19-5.66-23.92-9.4c-7.8-3.78-16.35-6.18-22.83-12.42
		c-1.07-1.03-2.18-0.61-2.81,0.75c-3.13,6.75-3.67,13.2,2.6,18.65C362.72,714.88,373.21,722.92,386.21,726.79z"/>
	<path d="M388.67,759.75c2.83,0.84,3.48,0.68,4.49-2.17c0.68-1.94,1.24-3.91,2.36-5.66c2.79-4.35,7.7-5.2,11.75-2
		c0.41,0.32,1.29,0.64,0.77,1.29c-0.4,0.5-1.18,0.93-1.97,0.57c-0.4-0.18-0.73-0.49-1.11-0.7c-1.77-1.01-3.19-0.6-4.39,1.02
		c-2.75,3.7-0.78,9.9,3.62,11.22c1.54,0.47,3.1,0.88,4.67,1.26c5.45,1.33,8.88-1.15,9.4-6.76c0.38-4.04-1.75-8.55-5.4-11.2
		c-3.24-2.36-6.96-3.78-10.71-5.04c-8.14-2.73-16.19-5.66-23.92-9.4c-7.8-3.78-16.35-6.18-22.83-12.42
		c-1.07-1.03-2.18-0.61-2.81,0.75c-3.13,6.75-3.67,13.2,2.6,18.65C365.17,747.83,375.67,755.87,388.67,759.75z"/>
	<path d="M403.94,663.28c-0.48-0.53-1-1.12-1.54-1.73l1.32,9.71c1.87,1.8,3.53,3.69,4.99,5.7c2.67,3.69,3.74,7.5,3.25,11.64
		c-0.54,5.04-2.32,8.66-3.81,11.25c-0.14,0.25-0.29,0.48-0.43,0.7l0.52,3.8c2.16,0.97,4.29,2.13,6.32,3.61
		c1.29,0.94,2.45,2.02,3.47,3.21c0.4-2.61,0.44-5.32,0.07-8.07l-4.09-30C410.54,670.11,407.15,666.86,403.94,663.28z M362.58,625.47
		c-0.2-0.33-0.4-0.65-0.6-0.98l1.85,13.53c1.24,1.75,2.29,3.51,3.28,5.17c0.24,0.39,0.47,0.79,0.7,1.18
		c1.69,2.81,3.25,5.66,4.76,8.43l0.91,1.66c0.31,0.56,0.57,0.84,1.37,1.13l0.69,0.25c0.26,0.09,0.52,0.19,0.79,0.28l-2.41-17.7
		C369.73,634.85,365.8,630.63,362.58,625.47z M200.39,478.39l2.99,21.95l8.05-1.1l2.6,19.02l78.67-10.73
		c3.58,23.74,28.19,40.86,59.28,43.68l4.33,31.73c1.16-3.53,3.21-8.93,8.27-12.94l-2.51-18.38c3.82-0.04,7.7-0.28,11.63-0.75l0,0.02
		c0.31-0.04,0.61-0.08,0.92-0.13c0.31-0.03,0.61-0.07,0.91-0.12l0-0.02c3.91-0.6,7.72-1.4,11.41-2.39l3.31,24.28
		c0.34,0.44,0.66,0.9,0.96,1.38c0.47,0.75,0.94,1.5,1.41,2.26c2.74,4.39,5.34,8.56,8.24,12.39c-0.42-1.67-0.9-3.38-1.39-5.16
		c-0.36-1.31,2.35,7.43,2,6.13l0.92-0.96l0,0l-5.85-43.41c29.2-11.05,48.32-34.14,45.41-57.96l78.67-10.73l-2.6-19.02l8.05-1.1
		l-2.99-21.95L200.39,478.39z M509.62,470.87l-286.47,39.08l-1.62-11.89L508,458.97L509.62,470.87z"/>
	<path style="fill:#FFFFFF;" d="M565.4,470.35l0.05,0.36c1.35,9.37,9.03,16.55,18.48,17.27l0.36,0.03l-0.36,0.05
		c-9.37,1.35-16.55,9.03-17.27,18.48l-0.03,0.36l-0.05-0.36c-1.35-9.37-9.03-16.55-18.48-17.27l-0.36-0.03l0.36-0.05
		c9.37-1.35,16.55-9.03,17.27-18.48L565.4,470.35z"/>
	<path style="fill:#FFFFFF;" d="M618.61,498.7l0.07,0.5c1.9,13.14,12.66,23.2,25.9,24.21l0.5,0.04l-0.5,0.07
		c-13.14,1.9-23.2,12.66-24.21,25.9l-0.04,0.5l-0.07-0.5c-1.9-13.14-12.66-23.2-25.9-24.21l-0.5-0.04l0.5-0.07
		c13.14-1.9,23.2-12.66,24.21-25.9L618.61,498.7z"/>
	<path style="fill:#FFFFFF;" d="M618.77,356.79l0.15,1.06c4.02,27.81,26.8,49.11,54.82,51.24l1.07,0.08l-1.06,0.15
		c-27.81,4.02-49.11,26.8-51.24,54.82l-0.08,1.07l-0.15-1.06c-4.02-27.81-26.8-49.11-54.82-51.24l-1.07-0.08l1.06-0.15
		c27.81-4.02,49.11-26.8,51.24-54.82L618.77,356.79z"/>
	<path style="fill:#FFFFFF;" d="M164.43,419.78l0.7-1.25l15.62-2.26l0.47,1.08c-1.49,1.02-2.14,1.74-2.26,2.96
		c-0.05,0.52-0.06,1.15,0.1,1.93l4.11,23.66l6.7-18.87l-1.06-6.2c-0.44-2.51-1.12-3.27-3.7-4.04l0.7-1.25l15.62-2.26l0.47,1.08
		c-1.49,1.02-2.14,1.74-2.26,2.96c-0.05,0.52-0.06,1.15,0.1,1.93l4.11,23.66l9.04-25.56c0.32-0.84,0.44-1.49,0.49-2.01
		c0.12-1.22-0.4-1.77-1.73-2.38l0.7-1.25l9.57-1.39l0.47,1.08c-2.82,1.55-3.67,2.53-4.63,5.25l-12.83,36.18l-10.33,1.5l-3.23-18.58
		l-7.1,20.07l-10.33,1.5l-5.79-33.48C167.7,421.31,167.02,420.55,164.43,419.78z"/>
	<path style="fill:#FFFFFF;" d="M221.02,449.34c2.46-1.5,3.14-2.46,3.4-5.07l2.91-29.02c0.26-2.61-0.24-3.4-2.47-4.22l0.7-1.25
		l15.26-2.21l0.47,1.08c-2.46,1.5-3.14,2.46-3.4,5.07l-2.91,29.02c-0.26,2.61,0.24,3.4,2.47,4.22l-0.7,1.25l-15.26,2.21
		L221.02,449.34z"/>
	<path style="fill:#FFFFFF;" d="M252.64,416.73l-2.39,23.8c-0.26,2.61,0.24,3.4,2.47,4.22l-0.7,1.25l-9.4,1.36l-0.47-1.08
		c2.46-1.5,3.14-2.46,3.4-5.07l2.91-29.02c0.26-2.61-0.24-3.4-2.47-4.22l0.7-1.25l13.97-2.02l9.1,25.79l2.18-21.71
		c0.26-2.61-0.24-3.4-2.47-4.22l0.7-1.25l9.39-1.36l0.47,1.08c-2.46,1.5-3.14,2.46-3.4,5.07l-2.91,29.02
		c-0.26,2.61,0.24,3.4,2.47,4.22l-0.7,1.25l-13.09,1.9L252.64,416.73z"/>
	<path style="fill:#FFFFFF;" d="M280.91,440.67c2.47-1.5,3.14-2.46,3.4-5.07l2.91-29.02c0.26-2.61-0.24-3.4-2.47-4.22l0.7-1.25
		l16.97-2.46c9.75-1.41,16.9,5.1,15.63,17.75c-1.27,12.65-9.96,21.46-19.71,22.87l-16.97,2.46L280.91,440.67z M297.88,404.18
		l-3.04,30.3c-0.1,1.05,0.42,1.54,1.48,1.39l0.06-0.01c5.93-0.86,8.57-4.1,9.94-17.74c1.37-13.64-0.69-16.2-6.62-15.34l-4.05,0.59
		L297.88,404.18z"/>
	<path style="fill:#FFFFFF;" d="M322.59,415.76c1.27-12.65,9.99-21.75,19.8-23.17c9.75-1.41,16.88,5.39,15.61,18.04
		c-1.27,12.65-9.99,21.75-19.74,23.16C328.45,435.21,321.32,428.41,322.59,415.76z M338.63,430.02c3.58-0.52,6.25-4.05,7.62-17.69
		c1.37-13.64-0.66-16.49-4.24-15.97c-3.64,0.53-6.31,4.06-7.68,17.7C332.96,427.69,334.99,430.55,338.63,430.02z"/>
	<path style="fill:#FFFFFF;" d="M359.86,391.48l0.7-1.25l15.62-2.26l0.47,1.08c-1.49,1.02-2.14,1.74-2.26,2.96
		c-0.05,0.52-0.06,1.15,0.1,1.93l4.11,23.66l6.69-18.87l-1.06-6.2c-0.44-2.51-1.12-3.27-3.7-4.04l0.71-1.25l15.61-2.26l0.47,1.07
		c-1.49,1.02-2.14,1.74-2.26,2.96c-0.05,0.52-0.06,1.15,0.1,1.93l4.11,23.66l9.04-25.56c0.32-0.84,0.44-1.49,0.49-2.02
		c0.12-1.22-0.4-1.77-1.73-2.38l0.7-1.25l9.57-1.39l0.47,1.08c-2.82,1.55-3.67,2.53-4.63,5.25l-12.83,36.18l-10.33,1.5l-3.23-18.58
		l-7.1,20.07l-10.33,1.5l-5.79-33.48C363.12,393.01,362.44,392.25,359.86,391.48z"/>
	<path style="fill:#FFFFFF;" d="M436.47,418.14c2.47-1.5,3.14-2.46,3.4-5.07l2.91-29.02l-4.4,0.64c-2.64,0.38-3.7,1.11-5.52,3.66
		l-1.09-0.13l2.43-8.64l28.89-4.18l0.74,8.18l-1.14,0.45c-1.35-2.09-2.29-2.53-4.93-2.15l-6.75,0.98l2.23,0.82l-2.79,27.86
		c-0.26,2.61,0.24,3.4,2.47,4.22l-0.7,1.25l-15.27,2.21L436.47,418.14z"/>
	<path style="fill:#FFFFFF;" d="M463.36,414.25c2.47-1.5,3.14-2.46,3.4-5.07l2.91-29.02c0.26-2.61-0.24-3.4-2.47-4.22l0.7-1.25
		l15.26-2.21l0.47,1.08c-2.46,1.5-3.14,2.46-3.4,5.07l-2.91,29.02c-0.26,2.61,0.24,3.4,2.47,4.22l-0.7,1.25l-15.26,2.21
		L463.36,414.25z"/>
	<path style="fill:#FFFFFF;" d="M494.98,381.64l-2.39,23.8c-0.26,2.61,0.24,3.4,2.47,4.22l-0.7,1.25l-9.4,1.36l-0.47-1.08
		c2.47-1.5,3.14-2.46,3.4-5.07l2.91-29.02c0.26-2.61-0.24-3.4-2.47-4.22l0.7-1.25l13.97-2.02l9.1,25.79l2.18-21.71
		c0.26-2.61-0.24-3.4-2.47-4.22l0.7-1.25l9.39-1.36l0.47,1.08c-2.46,1.5-3.14,2.46-3.4,5.07l-2.91,29.02
		c-0.26,2.61,0.24,3.4,2.47,4.22l-0.7,1.25l-13.09,1.9L494.98,381.64z"/>
	<path style="fill:#FFFFFF;" d="M529.01,404.74c2.47-1.5,3.14-2.46,3.4-5.07l2.91-29.02l-4.4,0.64c-2.64,0.38-3.7,1.11-5.52,3.66
		l-1.09-0.13l2.43-8.64l28.89-4.18l0.74,8.18l-1.14,0.45c-1.35-2.09-2.29-2.53-4.93-2.15l-6.75,0.98l2.23,0.82l-2.79,27.86
		c-0.26,2.61,0.24,3.4,2.47,4.22l-0.7,1.25l-15.26,2.21L529.01,404.74z"/>
	<path style="fill:#FFFFFF;" d="M757.94,126.3C647.79,65.59,523.12,33.5,397.4,33.5S147.01,65.59,36.86,126.3l-3.36,1.85V598.3
		c0,61.66,33.17,119.11,86.57,149.94L397.4,908.36l277.33-160.12c53.4-30.83,86.57-88.28,86.57-149.94V128.15L757.94,126.3z
		 M748.3,598.3c0,57.03-30.68,110.17-80.07,138.68L397.4,893.35L126.57,736.98C77.18,708.47,46.5,655.33,46.5,598.3V135.84
		C153.9,77.38,275.14,46.5,397.4,46.5s243.5,30.88,350.9,89.34V598.3z"/>
	<path style="fill:#FFFFFF;" d="M101.36,324.77c10.87-1.96,20.05-7.61,27.55-16.97c7.5-9.35,11.18-17.82,11.04-25.41
		c-0.07-3.63-1.61-5.97-4.63-7.01c-2.07-0.9-3.09-0.55-3.06,1.03c0.09,4.74-2.42,10.39-7.52,16.93c-5.1,6.54-10.88,10.4-17.33,11.56
		c-4.89,0.88-8.7-0.22-11.44-3.29c-2.75-3.07-4.17-7.61-4.28-13.61c-0.15-8.37,1.58-17.36,5.2-26.97
		c3.62-9.61,8.67-18.8,15.15-27.57c6.48-8.77,14.64-16.5,24.47-23.19c9.84-6.68,20.34-11.03,31.53-13.05
		c11.81-2.13,24.12-3.15,36.93-3.08c12.8,0.07,24.5,0.34,35.1,0.81c10.59,0.47,19.12,0.12,25.58-1.04c4.09-0.74,7.66-2.25,10.7-4.54
		c3.04-2.29,5.32-4.88,6.86-7.77c1.52-2.89,2.62-5.62,3.29-8.2c0.66-2.58,0.98-4.89,0.94-6.95c-0.02-1.26-0.32-2.32-0.89-3.17
		c-0.57-0.85-1.25-1.2-2.03-1.06c-0.63,0.11-1.49,0.83-2.57,2.13c-1.08,1.31-2.83,2.73-5.26,4.28c-2.42,1.55-5.37,2.63-8.83,3.25
		c-16.23,2.92-34,5.45-53.32,7.58c-19.32,2.13-32.45,3.82-39.38,5.07c-14.34,2.58-27.65,6.84-39.95,12.78
		c-12.3,5.94-22.65,12.72-31.04,20.33c-8.4,7.62-15.64,15.81-21.72,24.6c-6.09,8.79-10.47,17.42-13.16,25.91
		c-2.69,8.49-3.97,16.53-3.83,24.11c0.2,10.9,3.99,19.46,11.37,25.65C84.19,324.09,92.38,326.38,101.36,324.77z"/>
	<path style="fill:#FFFFFF;" d="M204.37,220.51c5.17-6.72,10.44-10.56,15.8-11.52c1.1-0.2,1.32-0.95,0.67-2.26
		c-0.99-2.36-3.3-3.21-6.92-2.56c-10.08,1.82-19.84,8.45-29.27,19.89c-9.43,11.45-18.84,28.87-28.21,52.28
		c-5.75,14.19-11.18,26.5-16.28,36.93c-5.11,10.43-9.58,18.61-13.43,24.53c-3.84,5.92-7.63,10.73-11.35,14.41
		c-3.73,3.68-6.92,6.16-9.59,7.43c-2.67,1.27-5.57,2.19-8.72,2.76c-1.1,0.2-2.13-0.01-3.09-0.63c-0.96-0.62-1.52-0.92-1.67-0.89
		c-0.79,0.14-1.45,0.9-1.97,2.26c-0.53,1.37-0.78,2.99-0.74,4.89c0.09,4.74,2.42,9.15,7,13.24c4.58,4.09,9.94,5.58,16.08,4.47
		c7.09-1.28,13.81-5.38,20.16-12.31c6.35-6.93,12.01-15.48,16.96-25.64c4.95-10.16,9.73-21.25,14.33-33.25
		c4.6-12,9.05-24.02,13.34-36.05c4.28-12.02,8.55-23.02,12.8-32.97C194.49,235.57,199.2,227.23,204.37,220.51z"/>
	<path style="fill:#FFFFFF;" d="M231.29,227.31c-3.38,1.17-6.46,3.42-9.24,6.78c-2.79,3.35-4.46,6.83-5.03,10.41
		c-0.57,3.59,0.19,6.19,2.27,7.79c2.08,1.61,4.81,1.83,8.19,0.67c3.38-1.16,6.46-3.42,9.24-6.78c2.78-3.36,4.46-6.83,5.03-10.42
		c0.56-3.59-0.2-6.18-2.28-7.79C237.39,226.37,234.66,226.15,231.29,227.31z"/>
	<path style="fill:#FFFFFF;" d="M612.41,183.67c3.38-1.16,6.46-3.42,9.24-6.78c2.78-3.35,4.46-6.83,5.03-10.42
		c0.56-3.59-0.19-6.18-2.27-7.79c-2.09-1.6-4.82-1.82-8.19-0.66c-3.38,1.17-6.46,3.42-9.24,6.78c-2.78,3.35-4.46,6.83-5.03,10.41
		c-0.57,3.59,0.19,6.19,2.27,7.79C606.3,184.62,609.04,184.84,612.41,183.67z"/>
	<path style="fill:#FFFFFF;" d="M728.38,218.32c-0.97-0.93-2.65-2.45-5.06-4.56c-0.33-0.42-0.72-0.35-1.18,0.21
		c-6.89,12.5-13.19,22.47-18.9,29.92c-5.71,7.45-9.75,11.38-12.11,11.81c-2.21,0.4-3.34-0.83-3.39-3.67
		c-0.07-3.95,1.2-9.88,3.83-17.81c2.62-7.92,9.23-24.73,19.83-50.41c0.15-0.5,0.1-0.93-0.14-1.28c-0.24-0.35-0.6-0.49-1.07-0.4
		l-18.91,3.4c-1.1,0.2-1.88,0.81-2.34,1.85c-0.76,2.04-1.21,3.23-1.36,3.57c-2.65-6.81-8.55-9.4-17.68-7.75
		c-7.09,1.28-13.98,4.62-20.68,10.02c-6.7,5.41-12.24,11.68-16.61,18.8c-4.38,7.13-7.88,14.54-10.5,22.22
		c-0.03,0.08-0.05,0.17-0.08,0.25c-6.29,11.05-12.19,20.09-17.68,27.08c-5.95,7.57-10.18,11.58-12.7,12.04
		c-2.21,0.4-3.34-0.83-3.39-3.67c-0.07-3.95,1.32-10.14,4.17-18.58c2.85-8.44,10.03-26.61,21.53-54.52c0.15-0.5,0.1-0.93-0.14-1.28
		c-0.24-0.35-0.6-0.49-1.07-0.4l-18.91,3.4c-1.1,0.2-1.88,0.81-2.33,1.85c-7.16,17.44-12.52,30.88-16.11,40.38
		c-8.17,14.75-15.47,25.92-21.9,33.52c-6.5,7.67-14.08,12.52-22.73,14.56c7.76-8.05,13.98-17.62,18.68-28.69
		c4.7-11.07,6.97-21.03,6.81-29.88c-0.14-7.74-2.26-13.74-6.37-17.99c-4.11-4.25-9.71-5.74-16.79-4.47
		c-6.3,1.13-12.64,4.89-19,11.27l2.05-4.65c0.14-0.5,0.1-0.93-0.14-1.28c-0.24-0.35-0.6-0.49-1.08-0.4l-18.9,3.4
		c-1.1,0.2-1.88,0.81-2.34,1.85l-19.86,48.3c-8.72,14.27-16.78,21.36-24.16,21.2c8.44-14.04,12.55-26.99,12.34-38.84
		c-0.15-8.53-2.61-15.06-7.35-19.6c-4.75-4.53-11.77-5.97-21.06-4.29c-8.67,1.56-17.16,6.14-25.48,13.74
		c-8.32,7.6-14.95,16.6-19.9,27c-2.62,5.51-4.5,10.91-5.68,16.2c-5.42,9.01-10.53,16.24-15.32,21.7
		c-6.04,6.87-11.03,10.66-14.97,11.37c-2.36,0.43-3.57-0.78-3.62-3.63c-0.08-4.27,1.08-9.9,3.49-16.91
		c2.4-7.01,8.6-22.83,18.58-47.45l13-2.34c1.1-0.2,1.88-0.81,2.34-1.85l3.63-8.98c0.15-0.5,0.1-0.93-0.14-1.28
		c-0.24-0.35-0.6-0.49-1.07-0.4l-12.53,2.26c3.33-8.05,9-21.91,17.03-41.59c0.3-0.53,0.3-0.96-0.02-1.3
		c-0.33-0.33-0.72-0.46-1.19-0.38l-18.67,3.36c-1.1,0.2-1.88,0.9-2.33,2.09c-8.48,20.55-14.23,34.51-17.26,41.86l-9.45,1.7
		c-1.1,0.2-1.88,0.81-2.34,1.85l-3.63,9.21c-0.15,0.35-0.11,0.69,0.14,1.04c0.24,0.35,0.6,0.49,1.08,0.4l8.98-1.62
		c-6.64,16.22-11.46,28.4-14.48,36.59c-5.23,9.23-10.82,17.53-16.76,24.91c-6.72,8.34-11.66,12.8-14.81,13.37
		c-2.21,0.4-3.33-0.83-3.39-3.67c-0.05-2.53,1.06-6.88,3.32-13.08c2.26-6.19,6.49-16.74,12.7-31.65c1.81-5.08,2.67-9.75,2.59-14.02
		c-0.08-4.27-1.72-7.65-4.93-10.17c-3.21-2.51-7.49-3.29-12.84-2.33c-2.99,0.54-5.47,1.1-7.44,1.7c-1.97,0.59-4.59,1.89-7.87,3.91
		c-3.28,2.02-6.48,4.65-9.58,7.9l2.72-6.91c0.3-0.53,0.34-0.97,0.09-1.32c-0.24-0.35-0.6-0.49-1.07-0.4l-18.91,3.4
		c-1.1,0.2-1.88,0.81-2.34,1.85l-16.47,39.96c-0.04,0.04-0.07,0.06-0.11,0.11c-6.89,12.34-13.31,22.29-19.25,29.86
		c-5.95,7.57-10.18,11.58-12.7,12.04c-2.21,0.4-3.34-0.83-3.39-3.67c-0.07-3.95,1.32-10.14,4.17-18.58
		c2.85-8.44,10.03-26.61,21.53-54.52c0.15-0.5,0.1-0.93-0.14-1.28c-0.24-0.35-0.6-0.49-1.07-0.4l-18.91,3.4
		c-1.1,0.2-1.88,0.81-2.33,1.85c-10.9,26.53-17.66,43.88-20.28,52.04c-2.62,8.16-3.88,14.69-3.8,19.59
		c0.09,5.21,1.87,9.25,5.32,12.12c3.45,2.87,7.61,3.86,12.5,2.98c3.62-0.65,6.65-1.55,9.08-2.7c2.43-1.15,5.47-3.36,9.13-6.64
		c0.68-0.61,1.36-1.29,2.06-2l-2.58,6.26c-0.15,0.5-0.1,0.93,0.14,1.28c0.24,0.35,0.6,0.49,1.07,0.4l18.91-3.4
		c0.95-0.17,1.64-0.77,2.1-1.8l23.16-56.24c4.9-8.81,9.91-15.77,15.03-20.9c5.12-5.12,9.26-7.97,12.41-8.54
		c5.21-0.14,4.05,9.66-3.5,29.4c-4.4,10.46-7.11,17.65-8.14,21.56c-1.04,3.91-1.52,7.92-1.44,12.03c0.1,5.37,1.59,9.35,4.48,11.91
		c2.89,2.57,6.78,3.42,11.66,2.54c3.62-0.65,6.81-1.58,9.55-2.79c2.74-1.21,6.14-3.44,10.19-6.71c4.05-3.26,8.42-8.29,13.12-15.08
		c0.34-0.49,0.69-1.02,1.04-1.53c0,0.01,0,0.02,0,0.04c0.1,5.37,1.88,9.73,5.34,13.07c3.46,3.34,7.63,4.57,12.51,3.69
		c4.09-0.74,7.52-1.71,10.26-2.92c2.74-1.21,6.02-3.46,9.83-6.76c3.81-3.3,7.95-8.24,12.41-14.84c1.05-1.55,2.13-3.22,3.24-4.99
		c0.81,7.32,3.06,12.84,6.8,16.5c4.59,4.49,11.37,5.92,20.35,4.3c11.97-2.16,23.29-9.98,33.95-23.47c2.7,0.62,5.42,0.69,8.18,0.19
		c2.75-0.5,5.23-1.3,7.42-2.41c1.62-0.82,3.25-1.9,4.9-3.24l-30.86,75.08c-0.31,0.53-0.34,0.97-0.1,1.32
		c0.24,0.35,0.6,0.49,1.08,0.4l18.9-3.4c1.11-0.2,1.88-0.81,2.34-1.85l41.55-101.16c6.52-14.97,12.69-25.86,18.49-32.69
		c5.8-6.83,10.59-10.58,14.37-11.27c3.62-0.65,5.49,1.95,5.59,7.79c0.15,8.37-2.19,18.7-7.03,30.98
		c-4.84,12.28-10.43,22.01-16.78,29.18c-4.14-1.47-7.39-2-9.75-1.57c-3.31,0.6-6.05,2.04-8.22,4.33c-2.17,2.29-3.23,5.02-3.17,8.18
		c0.05,2.84,0.88,4.95,2.48,6.33c1.6,1.37,3.4,2.08,5.37,2.12c1.98,0.04,4.26-0.29,6.86-1c2.6-0.7,4.36-1.26,5.3-1.67
		c0.94-0.41,1.72-0.83,2.35-1.25c5.53-0.36,10.34-0.91,14.43-1.65c4.1-0.74,7.95-1.67,11.57-2.8c3.61-1.13,6.94-2.8,9.99-5.01
		c3.04-2.21,5.88-4.58,8.52-7.12c2.64-2.53,5.38-5.92,8.23-10.16c0.99-1.47,1.95-2.97,2.91-4.47c0,0.25-0.02,0.5-0.01,0.74
		c0.09,5.21,1.87,9.25,5.32,12.12c3.45,2.87,7.61,3.86,12.5,2.98c3.62-0.65,6.65-1.55,9.08-2.7c2.43-1.15,5.47-3.36,9.12-6.64
		c3.65-3.27,7.6-8.18,11.83-14.73c1.02-1.58,2.09-3.29,3.2-5.11c0.52,6.47,2.4,11.48,5.63,15.05c3.71,4.09,8.87,5.53,15.49,4.34
		c9.29-1.67,18.32-9.56,27.07-23.66l0.01,0.48c0.09,5.21,1.86,9.26,5.31,12.12c3.45,2.87,7.69,3.85,12.74,2.94
		c3.46-0.62,6.41-1.51,8.84-2.66c2.43-1.15,5.39-3.35,8.89-6.59c3.5-3.24,7.32-8.13,11.47-14.67c4.15-6.53,9.05-15.06,14.71-25.59
		C728.94,219.17,728.86,218.71,728.38,218.32z M439.44,273.42c-2.83,0.83-5.44,2.92-7.83,6.28c-2.39,3.36-3.55,6.7-3.49,10.02
		c0.03,1.9,0.45,3.33,1.26,4.29c-7.07,11.26-13.59,17.43-19.58,18.5c-2.36,0.43-4.28-0.62-5.75-3.13c-1.47-2.51-2.24-5.9-2.32-10.16
		c-0.15-8.53,1.81-17.84,5.89-27.93c4.08-10.09,8.87-18.48,14.36-25.17c5.49-6.69,10.28-10.41,14.38-11.15
		c5.2-0.94,7.88,3.34,8.06,12.82C444.57,255.54,442.9,264.08,439.44,273.42z M680.54,208.14c-2.88,7.02-5.14,12.98-6.79,17.87
		c-11.46,22.03-20.73,33.69-27.81,34.97c-1.74,0.31-3.21-0.25-4.42-1.7c-1.21-1.45-1.84-3.59-1.89-6.44
		c-0.11-6.16,1.41-13.89,4.56-23.17c3.15-9.28,7.34-17.73,12.58-25.33c5.23-7.6,10.29-11.84,15.18-12.72
		c2.83-0.51,5.07,0.75,6.71,3.79C680.28,198.44,680.92,202.69,680.54,208.14z"/>
</g>
<g>
</g>
<g>
</g>
<g>
</g>
<g>
</g>
<g>
</g>
<g>
</g>
<g>
</g>
<g>
</g>
<g>
</g>
<g>
</g>
<g>
</g>
<g>
</g>
<g>
</g>
<g>
</g>
<g>
</g>
</svg>
